<svg width="249" height="72" viewBox="0 0 249 72" fill="none" xmlns="http://www.w3.org/2000/svg">
    <path d="M209.99 63.7938C212.966 63.8148 215.721 63.0981 217.818 61.6996C219.854 60.3432 220.957 58.5292 221.057 56.5541C222.797 56.4677 224.438 56.1362 225.876 55.5619C229.293 54.1961 231.286 51.6934 231.803 48.1214C231.938 47.5588 233.707 41.0171 242.812 38.5471L247.962 37.1486C249.343 36.7728 249.347 35.4911 247.966 35.1152L242.823 33.7051C233.732 31.2163 232.002 24.7191 231.86 24.1051C231.361 20.5331 229.379 18.0257 225.969 16.6529C224.534 16.0739 222.893 15.7401 221.156 15.649C221.064 13.6739 219.971 11.8576 217.942 10.4965C215.849 9.09339 213.098 8.37199 210.122 8.386C208.036 3.23581 201.099 0.154098 194.66 0.147094L185.017 0.137755L54.518 1.19671e-05C48.079 -0.00699192 41.1274 3.06071 39.0131 8.20624C36.0375 8.18756 33.2825 8.90195 31.1824 10.3004C29.1464 11.6568 28.043 13.4708 27.9433 15.4459C26.2028 15.5323 24.5619 15.8638 23.1238 16.4381C19.7068 17.8039 17.7135 20.3043 17.1974 23.8739C17.0372 24.5393 15.2539 30.9922 6.18807 33.4529L1.03758 34.8514C-0.343483 35.2272 -0.347043 36.509 1.03402 36.8848L6.17739 38.2949C15.2682 40.7837 16.9981 47.2809 17.1404 47.8926C17.6388 51.4646 19.6214 53.972 23.0313 55.3447C24.4657 55.9237 26.1066 56.2576 27.8437 56.3486C27.9362 58.3237 29.0289 60.1401 31.0578 61.5012C33.1508 62.9043 35.9022 63.6257 38.8779 63.6117C40.9637 68.7642 47.901 71.8436 54.3401 71.8506L184.843 71.9883L188.872 71.993L194.486 72C200.925 72.007 207.876 68.9393 209.987 63.7938H209.99Z" fill="#FD67AE"/>
</svg>
